{
  "accessors": [
    {
      "bufferView": 2,
      "componentType": 5126,
      "count": 29602,
      "max": [
        535.42449951171875,
        1379.9815673828125,
        325.0001220703125
      ],
      "min": [
        -535.424560546875,
        -175.51495361328125,
        -122.11270141601562
      ],
      "type": "VEC3"
    },
    {
      "bufferView": 2,
      "byteOffset": 355224,
      "componentType": 5126,
      "count": 29602,
      "max": [
        1,
        1,
        1
      ],
      "min": [
        -1,
        -1,
        -1
      ],
      "type": "VEC3"
    },
    {
      "bufferView": 3,
      "componentType": 5126,
      "count": 29602,
      "max": [
        1,
        1,
        1,
        1
      ],
      "min": [
        -1,
        -1,
        -1,
        -1
      ],
      "type": "VEC4"
    },
    {
      "bufferView": 1,
      "componentType": 5126,
      "count": 29602,
      "max": [
        0.98789197206497192,
        0.99000000953674316
      ],
      "min": [
        0.0099999997764825821,
        0.0099999997764825821
      ],
      "type": "VEC2"
    },
    {
      "bufferView": 0,
      "componentType": 5125,
      "count": 69042,
      "max": [
        29601
      ],
      "min": [
        0
      ],
      "type": "SCALAR"
    },
    {
      "bufferView": 2,
      "byteOffset": 710448,
      "componentType": 5126,
      "count": 18,
      "max": [
        2407.499755859375,
        2900.2548828125,
        -290
      ],
      "min": [
        -2392.499755859375,
        -1826.8221435546875,
        -290
      ],
      "type": "VEC3"
    },
    {
      "bufferView": 2,
      "byteOffset": 710664,
      "componentType": 5126,
      "count": 18,
      "max": [
        0,
        -0,
        1
      ],
      "min": [
        0,
        -0,
        1
      ],
      "type": "VEC3"
    },
    {
      "bufferView": 3,
      "byteOffset": 473632,
      "componentType": 5126,
      "count": 18,
      "max": [
        9.9320504887145944e-06,
        -1,
        0,
        1
      ],
      "min": [
        -8.9046006905846298e-06,
        -1,
        0,
        1
      ],
      "type": "VEC4"
    },
    {
      "bufferView": 1,
      "byteOffset": 236816,
      "componentType": 5126,
      "count": 18,
      "max": [
        0.93404698371887207,
        0.95617300271987915
      ],
      "min": [
        0.047720000147819519,
        0.056173000484704971
      ],
      "type": "VEC2"
    },
    {
      "bufferView": 0,
      "byteOffset": 276168,
      "componentType": 5125,
      "count": 48,
      "max": [
        17
      ],
      "min": [
        0
      ],
      "type": "SCALAR"
    },
    {
      "bufferView": 2,
      "byteOffset": 710880,
      "componentType": 5126,
      "count": 156,
      "max": [
        290.84329223632812,
        68.031623840332031,
        17.310773849487305
      ],
      "min": [
        -289.99951171875,
        26.46049690246582,
        -37.536659240722656
      ],
      "type": "VEC3"
    },
    {
      "bufferView": 2,
      "byteOffset": 712752,
      "componentType": 5126,
      "count": 156,
      "max": [
        0.85714787244796753,
        0.98143064975738525,
        0.9913451075553894
      ],
      "min": [
        -0.85715019702911377,
        -0.98784875869750977,
        -0.99072974920272827
      ],
      "type": "VEC3"
    },
    {
      "bufferView": 3,
      "byteOffset": 473920,
      "componentType": 5126,
      "count": 156,
      "max": [
        0.1200975626707077,
        0.87216764688491821,
        0.91162288188934326,
        1
      ],
      "min": [
        -0.99960750341415405,
        -0.87400078773498535,
        -0.89724546670913696,
        -1
      ],
      "type": "VEC4"
    },
    {
      "bufferView": 0,
      "byteOffset": 276360,
      "componentType": 5125,
      "count": 756,
      "max": [
        155
      ],
      "min": [
        0
      ],
      "type": "SCALAR"
    },
    {
      "bufferView": 2,
      "byteOffset": 714624,
      "componentType": 5126,
      "count": 156,
      "max": [
        290.21121215820312,
        65.66241455078125,
        15.069452285766602
      ],
      "min": [
        -289.367431640625,
        28.850685119628906,
        -35.291694641113281
      ],
      "type": "VEC3"
    },
    {
      "bufferView": 2,
      "byteOffset": 716496,
      "componentType": 5126,
      "count": 156,
      "max": [
        0.85712689161300659,
        0.98224270343780518,
        0.99152612686157227
      ],
      "min": [
        -0.85714179277420044,
        -0.98449337482452393,
        -0.99089562892913818
      ],
      "type": "VEC3"
    },
    {
      "bufferView": 3,
      "byteOffset": 476416,
      "componentType": 5126,
      "count": 156,
      "max": [
        0.2296735942363739,
        0.87226670980453491,
        0.93495643138885498,
        1
      ],
      "min": [
        -0.99967461824417114,
        -0.91467928886413574,
        -0.9548720121383667,
        -1
      ],
      "type": "VEC4"
    },
    {
      "bufferView": 0,
      "byteOffset": 279384,
      "componentType": 5125,
      "count": 756,
      "max": [
        155
      ],
      "min": [
        0
      ],
      "type": "SCALAR"
    }
  ],
  "asset": {
    "generator": "Sketchfab (OSG glTF plugin)",
    "version": "2.0"
  },
  "bufferViews": [
    {
      "buffer": 0,
      "byteLength": 282408,
      "byteOffset": 0,
      "name": "floatBufferViews",
      "target": 34963
    },
    {
      "buffer": 0,
      "byteLength": 236960,
      "byteOffset": 282408,
      "byteStride": 8,
      "name": "floatBufferViews",
      "target": 34962
    },
    {
      "buffer": 0,
      "byteLength": 718368,
      "byteOffset": 519368,
      "byteStride": 12,
      "name": "floatBufferViews",
      "target": 34962
    },
    {
      "buffer": 0,
      "byteLength": 478912,
      "byteOffset": 1237736,
      "byteStride": 16,
      "name": "floatBufferViews",
      "target": 34962
    }
  ],
  "buffers": [
    {
      "byteLength": 1716648,
      "uri": "scene.bin"
    }
  ],
  "images": [
    {
      "uri": "textures/M_2_baseColor.png"
    },
    {
      "uri": "textures/M_1_baseColor.png"
    },
    {
      "uri": "textures/M_1_normal.png"
    },
    {
      "uri": "textures/M_1_emissive.png"
    }
  ],
  "materials": [
    {
      "doubleSided": true,
      "emissiveFactor": [
        1,
        1,
        1
      ],
      "emissiveTexture": {
        "index": 3,
        "texCoord": 0
      },
      "name": "M_1",
      "normalTexture": {
        "index": 2,
        "scale": 1,
        "texCoord": 0
      },
      "pbrMetallicRoughness": {
        "baseColorFactor": [
          1,
          1,
          1,
          1
        ],
        "baseColorTexture": {
          "index": 1,
          "texCoord": 0
        },
        "metallicFactor": 0,
        "roughnessFactor": 0.5
      }
    },
    {
      "alphaCutoff": 0.5,
      "alphaMode": "BLEND",
      "doubleSided": false,
      "name": "M_2",
      "pbrMetallicRoughness": {
        "baseColorFactor": [
          0.1110651123,
          0.1110651123,
          0.1110651123,
          1
        ],
        "baseColorTexture": {
          "index": 0,
          "texCoord": 0
        },
        "metallicFactor": 0,
        "roughnessFactor": 0.89297135959999996
      }
    },
    {
      "alphaCutoff": 0.5,
      "alphaMode": "BLEND",
      "doubleSided": true,
      "emissiveFactor": [
        0,
        1,
        1
      ],
      "name": "M_3",
      "pbrMetallicRoughness": {
        "baseColorFactor": [
          0,
          0.35260612689999998,
          1,
          0.5
        ],
        "metallicFactor": 0,
        "roughnessFactor": 0.89297135959999996
      }
    },
    {
      "doubleSided": true,
      "emissiveFactor": [
        1,
        1,
        1
      ],
      "name": "M_4",
      "pbrMetallicRoughness": {
        "baseColorFactor": [
          1,
          1,
          1,
          1
        ],
        "metallicFactor": 0,
        "roughnessFactor": 0.89297135959999996
      }
    }
  ],
  "meshes": [
    {
      "name": "POD1_M_1_0",
      "primitives": [
        {
          "attributes": {
            "NORMAL": 1,
            "POSITION": 0,
            "TANGENT": 2,
            "TEXCOORD_0": 3
          },
          "indices": 4,
          "material": 0,
          "mode": 4
        }
      ]
    },
    {
      "name": "Cylinder001_M_2_0",
      "primitives": [
        {
          "attributes": {
            "NORMAL": 6,
            "POSITION": 5,
            "TANGENT": 7,
            "TEXCOORD_0": 8
          },
          "indices": 9,
          "material": 1,
          "mode": 4
        }
      ]
    },
    {
      "name": "Loft010_M_3_0",
      "primitives": [
        {
          "attributes": {
            "NORMAL": 11,
            "POSITION": 10,
            "TANGENT": 12
          },
          "indices": 13,
          "material": 2,
          "mode": 4
        }
      ]
    },
    {
      "name": "Loft010_M_4_0",
      "primitives": [
        {
          "attributes": {
            "NORMAL": 15,
            "POSITION": 14,
            "TANGENT": 16
          },
          "indices": 17,
          "material": 3,
          "mode": 4
        }
      ]
    }
  ],
  "nodes": [
    {
      "children": [
        1
      ],
      "name": "RootNode (gltf orientation matrix)",
      "rotation": [
        -0.70710678118654746,
        -0,
        -0,
        0.70710678118654757
      ]
    },
    {
      "children": [
        2
      ],
      "name": "RootNode (model correction matrix)"
    },
    {
      "children": [
        3
      ],
      "matrix": [
        1,
        0,
        0,
        0,
        0,
        0,
        1,
        0,
        0,
        -1,
        0,
        0,
        0,
        0,
        0,
        1
      ],
      "name": "205087962ca64a9ab69f67b9ba53898f.fbx"
    },
    {
      "children": [
        4,
        7,
        10
      ],
      "name": "RootNode"
    },
    {
      "children": [
        6
      ],
      "matrix": [
        1,
        0,
        0,
        0,
        0,
        2.2204460492503131e-16,
        -1,
        0,
        0,
        1,
        2.2204460492503131e-16,
        0,
        0,
        0,
        500,
        1
      ],
      "name": "POD1"
    },
    {
      "mesh": 0,
      "name": "POD1_M_1_0"
    },
    {
      "children": [
        5
      ],
      "name": "Geode"
    },
    {
      "children": [
        9
      ],
      "matrix": [
        1,
        0,
        0,
        0,
        0,
        2.2204460492503131e-16,
        -1,
        0,
        0,
        1,
        2.2204460492503131e-16,
        0,
        0,
        0,
        500,
        1
      ],
      "name": "Cylinder001"
    },
    {
      "mesh": 1,
      "name": "Cylinder001_M_2_0"
    },
    {
      "children": [
        8
      ],
      "name": "Geode"
    },
    {
      "children": [
        13
      ],
      "matrix": [
        1,
        0,
        0,
        0,
        0,
        2.2204460492503131e-16,
        -1,
        0,
        0,
        1,
        2.2204460492503131e-16,
        0,
        0,
        0,
        500,
        1
      ],
      "name": "Loft010"
    },
    {
      "mesh": 2,
      "name": "Loft010_M_3_0"
    },
    {
      "mesh": 3,
      "name": "Loft010_M_4_0"
    },
    {
      "children": [
        11,
        12
      ],
      "name": "Geode"
    }
  ],
  "samplers": [
    {
      "magFilter": 9729,
      "minFilter": 9987,
      "wrapS": 10497,
      "wrapT": 10497
    }
  ],
  "scene": 0,
  "scenes": [
    {
      "name": "OSG_Scene",
      "nodes": [
        0
      ]
    }
  ],
  "textures": [
    {
      "sampler": 0,
      "source": 0
    },
    {
      "sampler": 0,
      "source": 1
    },
    {
      "sampler": 0,
      "source": 2
    },
    {
      "sampler": 0,
      "source": 3
    }
  ]
}

