{
  "accessors": [
    {
      "bufferView": 2,
      "componentType": 5126,
      "count": 1585,
      "max": [
        4.7459278106689453,
        2.9230728149414062,
        1.1503369808197021
      ],
      "min": [
        2.4001750946044922,
        2.5207428932189941,
        0.72403991222381592
      ],
      "type": "VEC3"
    },
    {
      "bufferView": 2,
      "byteOffset": 19020,
      "componentType": 5126,
      "count": 1585,
      "max": [
        0.99760979413986206,
        0.99716061353683472,
        0.99927282333374023
      ],
      "min": [
        -0.99760979413986206,
        -0.99746930599212646,
        -0.99927282333374023
      ],
      "type": "VEC3"
    },
    {
      "bufferView": 3,
      "componentType": 5126,
      "count": 1585,
      "max": [
        0.99182987213134766,
        0.99983280897140503,
        0.99949651956558228,
        1
      ],
      "min": [
        -0.99989932775497437,
        -0.9999924898147583,
        -1,
        1
      ],
      "type": "VEC4"
    },
    {
      "bufferView": 1,
      "componentType": 5126,
      "count": 1585,
      "max": [
        0.81230002641677856,
        0.75019997358322144
      ],
      "min": [
        0.13809999823570251,
        0.68720000982284546
      ],
      "type": "VEC2"
    },
    {
      "bufferView": 0,
      "componentType": 5125,
      "count": 7104,
      "max": [
        1584
      ],
      "min": [
        0
      ],
      "type": "SCALAR"
    },
    {
      "bufferView": 2,
      "byteOffset": 38040,
      "componentType": 5126,
      "count": 368,
      "max": [
        4.698638916015625,
        2.7644779682159424,
        1.0752788782119751
      ],
      "min": [
        2.4474649429321289,
        2.4540610313415527,
        0.37538290023803711
      ],
      "type": "VEC3"
    },
    {
      "bufferView": 2,
      "byteOffset": 42456,
      "componentType": 5126,
      "count": 368,
      "max": [
        0.9719727635383606,
        0.23509341478347778,
        0.95739787817001343
      ],
      "min": [
        -0.9719727635383606,
        -0.99893677234649658,
        -0.95739787817001343
      ],
      "type": "VEC3"
    },
    {
      "bufferView": 3,
      "byteOffset": 25360,
      "componentType": 5126,
      "count": 368,
      "max": [
        0.99924057722091675,
        0.99729865789413452,
        0.86435914039611816,
        1
      ],
      "min": [
        -0.99996840953826904,
        -0.87726682424545288,
        -0.99996566772460938,
        1
      ],
      "type": "VEC4"
    },
    {
      "bufferView": 1,
      "byteOffset": 12680,
      "componentType": 5126,
      "count": 368,
      "max": [
        0.93720000982284546,
        0.74510002136230469
      ],
      "min": [
        0.13809999823570251,
        0.56620001792907715
      ],
      "type": "VEC2"
    },
    {
      "bufferView": 0,
      "byteOffset": 28416,
      "componentType": 5125,
      "count": 1260,
      "max": [
        367
      ],
      "min": [
        0
      ],
      "type": "SCALAR"
    },
    {
      "bufferView": 2,
      "byteOffset": 46872,
      "componentType": 5126,
      "count": 9140,
      "max": [
        7.1461029052734375,
        6.6009702682495117,
        11.215234756469727
      ],
      "min": [
        0,
        0,
        0
      ],
      "type": "VEC3"
    },
    {
      "bufferView": 2,
      "byteOffset": 156552,
      "componentType": 5126,
      "count": 9140,
      "max": [
        0.99952942132949829,
        0.99998259544372559,
        0.99999392032623291
      ],
      "min": [
        -0.99952942132949829,
        -0.99999642372131348,
        -0.99999153614044189
      ],
      "type": "VEC3"
    },
    {
      "bufferView": 3,
      "byteOffset": 31248,
      "componentType": 5126,
      "count": 9140,
      "max": [
        0.99976813793182373,
        0.99999558925628662,
        0.9999726414680481,
        1
      ],
      "min": [
        -0.99998557567596436,
        -0.9905591607093811,
        -0.99997657537460327,
        -1
      ],
      "type": "VEC4"
    },
    {
      "bufferView": 1,
      "byteOffset": 15624,
      "componentType": 5126,
      "count": 9140,
      "max": [
        0.99639999866485596,
        0.9966999888420105
      ],
      "min": [
        0.003599999938160181,
        0.0032999999821186066
      ],
      "type": "VEC2"
    },
    {
      "bufferView": 0,
      "byteOffset": 33456,
      "componentType": 5125,
      "count": 43020,
      "max": [
        9139
      ],
      "min": [
        0
      ],
      "type": "SCALAR"
    }
  ],
  "asset": {
    "generator": "Sketchfab (OSG glTF plugin)",
    "version": "2.0"
  },
  "bufferViews": [
    {
      "buffer": 0,
      "byteLength": 205536,
      "byteOffset": 0,
      "name": "floatBufferViews",
      "target": 34963
    },
    {
      "buffer": 0,
      "byteLength": 88744,
      "byteOffset": 205536,
      "byteStride": 8,
      "name": "floatBufferViews",
      "target": 34962
    },
    {
      "buffer": 0,
      "byteLength": 266232,
      "byteOffset": 294280,
      "byteStride": 12,
      "name": "floatBufferViews",
      "target": 34962
    },
    {
      "buffer": 0,
      "byteLength": 177488,
      "byteOffset": 560512,
      "byteStride": 16,
      "name": "floatBufferViews",
      "target": 34962
    }
  ],
  "buffers": [
    {
      "byteLength": 738000,
      "uri": "scene.bin"
    }
  ],
  "images": [
    {
      "uri": "textures/Material.001_baseColor.png"
    },
    {
      "uri": "textures/anime_shader_baseColor.png"
    },
    {
      "uri": "textures/Material.002_baseColor.png"
    }
  ],
  "materials": [
    {
      "doubleSided": true,
      "emissiveFactor": [
        0,
        0,
        0
      ],
      "name": "Material.001",
      "pbrMetallicRoughness": {
        "baseColorFactor": [
          1,
          1,
          1,
          1
        ],
        "baseColorTexture": {
          "index": 0,
          "texCoord": 0
        },
        "metallicFactor": 0.97122713409999994,
        "roughnessFactor": 0.59999999999999998
      }
    },
    {
      "doubleSided": true,
      "emissiveFactor": [
        0,
        0,
        0
      ],
      "name": "Material.002",
      "pbrMetallicRoughness": {
        "baseColorFactor": [
          1,
          1,
          1,
          1
        ],
        "baseColorTexture": {
          "index": 2,
          "texCoord": 0
        },
        "metallicFactor": 0.79439786590000006,
        "roughnessFactor": 0.59999999999999998
      }
    },
    {
      "doubleSided": true,
      "emissiveFactor": [
        0,
        0,
        0
      ],
      "name": "anime_shader",
      "pbrMetallicRoughness": {
        "baseColorFactor": [
          1,
          1,
          1,
          1
        ],
        "baseColorTexture": {
          "index": 1,
          "texCoord": 0
        },
        "metallicFactor": 0,
        "roughnessFactor": 0.1175685976
      }
    }
  ],
  "meshes": [
    {
      "primitives": [
        {
          "attributes": {
            "NORMAL": 1,
            "POSITION": 0,
            "TANGENT": 2,
            "TEXCOORD_0": 3
          },
          "indices": 4,
          "material": 0,
          "mode": 4
        }
      ]
    },
    {
      "primitives": [
        {
          "attributes": {
            "NORMAL": 6,
            "POSITION": 5,
            "TANGENT": 7,
            "TEXCOORD_0": 8
          },
          "indices": 9,
          "material": 1,
          "mode": 4
        }
      ]
    },
    {
      "primitives": [
        {
          "attributes": {
            "NORMAL": 11,
            "POSITION": 10,
            "TANGENT": 12,
            "TEXCOORD_0": 13
          },
          "indices": 14,
          "material": 2,
          "mode": 4
        }
      ]
    }
  ],
  "nodes": [
    {
      "children": [
        1
      ],
      "name": "RootNode (gltf orientation matrix)",
      "rotation": [
        -0.70710678118654746,
        -0,
        -0,
        0.70710678118654757
      ]
    },
    {
      "children": [
        2
      ],
      "name": "RootNode (model correction matrix)"
    },
    {
      "children": [
        3
      ],
      "matrix": [
        1,
        0,
        0,
        0,
        0,
        1,
        0,
        0,
        0,
        0,
        1,
        0,
        -6.83148193359375,
        -3.419529914855957,
        -2.2638869285583496,
        1
      ],
      "name": "octo.obj.cleaner.materialmerger.gles"
    },
    {
      "children": [
        4
      ],
      "name": ""
    },
    {
      "children": [
        5,
        6,
        7
      ],
      "name": "Geode"
    },
    {
      "mesh": 0,
      "name": ""
    },
    {
      "mesh": 1,
      "name": ""
    },
    {
      "mesh": 2,
      "name": ""
    }
  ],
  "samplers": [
    {
      "magFilter": 9729,
      "minFilter": 9987,
      "wrapS": 10497,
      "wrapT": 10497
    }
  ],
  "scene": 0,
  "scenes": [
    {
      "name": "OSG_Scene",
      "nodes": [
        0
      ]
    }
  ],
  "textures": [
    {
      "sampler": 0,
      "source": 0
    },
    {
      "sampler": 0,
      "source": 1
    },
    {
      "sampler": 0,
      "source": 2
    }
  ]
}

