{
  "accessors": [
    {
      "bufferView": 2,
      "componentType": 5126,
      "count": 2050,
      "max": [
        343.29098510742188,
        119.81920623779297,
        67.69677734375
      ],
      "min": [
        -84.773223876953125,
        -114.67919921875,
        -82.279876708984375
      ],
      "type": "VEC3"
    },
    {
      "bufferView": 2,
      "byteOffset": 24600,
      "componentType": 5126,
      "count": 2050,
      "max": [
        1,
        1,
        1
      ],
      "min": [
        -1,
        -1,
        -1
      ],
      "type": "VEC3"
    },
    {
      "bufferView": 3,
      "componentType": 5126,
      "count": 2050,
      "max": [
        0.99998742341995239,
        1,
        0.99977433681488037,
        1
      ],
      "min": [
        -0.99977004528045654,
        -1,
        -0.9992988109588623,
        -1
      ],
      "type": "VEC4"
    },
    {
      "bufferView": 3,
      "byteOffset": 32800,
      "componentType": 5126,
      "count": 2050,
      "max": [
        1,
        1,
        1,
        1
      ],
      "min": [
        0,
        0,
        0,
        1
      ],
      "type": "VEC4"
    },
    {
      "bufferView": 1,
      "componentType": 5126,
      "count": 2050,
      "max": [
        0.99547159671783447,
        0.99868500232696533
      ],
      "min": [
        0.0020000000949949026,
        0.0020000000949949026
      ],
      "type": "VEC2"
    },
    {
      "bufferView": 0,
      "componentType": 5125,
      "count": 6252,
      "max": [
        2049
      ],
      "min": [
        0
      ],
      "type": "SCALAR"
    },
    {
      "bufferView": 2,
      "byteOffset": 49200,
      "componentType": 5126,
      "count": 2246,
      "max": [
        343.80862426757812,
        113.43174743652344,
        67.69677734375
      ],
      "min": [
        -139.10639953613281,
        -113.43174743652344,
        -81.795295715332031
      ],
      "type": "VEC3"
    },
    {
      "bufferView": 2,
      "byteOffset": 76152,
      "componentType": 5126,
      "count": 2246,
      "max": [
        1,
        1,
        1
      ],
      "min": [
        -1,
        -1,
        -1
      ],
      "type": "VEC3"
    },
    {
      "bufferView": 3,
      "byteOffset": 65600,
      "componentType": 5126,
      "count": 2246,
      "max": [
        0.99998742341995239,
        1,
        0.99977433681488037,
        1
      ],
      "min": [
        -0.99999886751174927,
        -1,
        -0.99989211559295654,
        -1
      ],
      "type": "VEC4"
    },
    {
      "bufferView": 3,
      "byteOffset": 101536,
      "componentType": 5126,
      "count": 2246,
      "max": [
        1,
        1,
        1,
        1
      ],
      "min": [
        0,
        0,
        0,
        1
      ],
      "type": "VEC4"
    },
    {
      "bufferView": 1,
      "byteOffset": 16400,
      "componentType": 5126,
      "count": 2246,
      "max": [
        0.99547159671783447,
        0.99868500232696533
      ],
      "min": [
        0.0020000000949949026,
        0.0020000000949949026
      ],
      "type": "VEC2"
    },
    {
      "bufferView": 0,
      "byteOffset": 25008,
      "componentType": 5125,
      "count": 6600,
      "max": [
        2245
      ],
      "min": [
        0
      ],
      "type": "SCALAR"
    },
    {
      "bufferView": 2,
      "byteOffset": 103104,
      "componentType": 5126,
      "count": 2039,
      "max": [
        113.43174743652344,
        343.29098510742188,
        79.312385559082031
      ],
      "min": [
        -113.43174743652344,
        -142.99734497070312,
        -71.321334838867188
      ],
      "type": "VEC3"
    },
    {
      "bufferView": 2,
      "byteOffset": 127572,
      "componentType": 5126,
      "count": 2039,
      "max": [
        1,
        1,
        1
      ],
      "min": [
        -1,
        -1,
        -1
      ],
      "type": "VEC3"
    },
    {
      "bufferView": 3,
      "byteOffset": 137472,
      "componentType": 5126,
      "count": 2039,
      "max": [
        1,
        0.99996954202651978,
        0.99984216690063477,
        1
      ],
      "min": [
        -1,
        -0.9999234676361084,
        -0.99989223480224609,
        -1
      ],
      "type": "VEC4"
    },
    {
      "bufferView": 3,
      "byteOffset": 170096,
      "componentType": 5126,
      "count": 2039,
      "max": [
        1,
        1,
        1,
        1
      ],
      "min": [
        0,
        0,
        0,
        1
      ],
      "type": "VEC4"
    },
    {
      "bufferView": 1,
      "byteOffset": 34368,
      "componentType": 5126,
      "count": 2039,
      "max": [
        0.99547159671783447,
        0.99868500232696533
      ],
      "min": [
        0.0019999993965029716,
        0.0020000000949949026
      ],
      "type": "VEC2"
    },
    {
      "bufferView": 0,
      "byteOffset": 51408,
      "componentType": 5125,
      "count": 5898,
      "max": [
        2038
      ],
      "min": [
        0
      ],
      "type": "SCALAR"
    },
    {
      "bufferView": 2,
      "byteOffset": 152040,
      "componentType": 5126,
      "count": 2251,
      "max": [
        340.03759765625,
        119.81920623779297,
        67.69677734375
      ],
      "min": [
        -82.406120300292969,
        -113.99897003173828,
        -82.234413146972656
      ],
      "type": "VEC3"
    },
    {
      "bufferView": 2,
      "byteOffset": 179052,
      "componentType": 5126,
      "count": 2251,
      "max": [
        1,
        1,
        1
      ],
      "min": [
        -1,
        -1,
        -1
      ],
      "type": "VEC3"
    },
    {
      "bufferView": 3,
      "byteOffset": 202720,
      "componentType": 5126,
      "count": 2251,
      "max": [
        0.99998223781585693,
        1,
        0.99977433681488037,
        1
      ],
      "min": [
        -0.9986342191696167,
        -0.99996680021286011,
        -0.9992988109588623,
        -1
      ],
      "type": "VEC4"
    },
    {
      "bufferView": 3,
      "byteOffset": 238736,
      "componentType": 5126,
      "count": 2251,
      "max": [
        1,
        1,
        1,
        1
      ],
      "min": [
        0,
        0,
        0,
        1
      ],
      "type": "VEC4"
    },
    {
      "bufferView": 1,
      "byteOffset": 50680,
      "componentType": 5126,
      "count": 2251,
      "max": [
        0.99547159671783447,
        0.99868500232696533
      ],
      "min": [
        0.0020000000949949026,
        0.0020000000949949026
      ],
      "type": "VEC2"
    },
    {
      "bufferView": 0,
      "byteOffset": 75000,
      "componentType": 5125,
      "count": 6600,
      "max": [
        2250
      ],
      "min": [
        0
      ],
      "type": "SCALAR"
    }
  ],
  "asset": {
    "generator": "Sketchfab (OSG glTF plugin)",
    "version": "2.0"
  },
  "bufferViews": [
    {
      "buffer": 0,
      "byteLength": 101400,
      "byteOffset": 0,
      "name": "floatBufferViews",
      "target": 34963
    },
    {
      "buffer": 0,
      "byteLength": 68688,
      "byteOffset": 101400,
      "byteStride": 8,
      "name": "floatBufferViews",
      "target": 34962
    },
    {
      "buffer": 0,
      "byteLength": 206064,
      "byteOffset": 170088,
      "byteStride": 12,
      "name": "floatBufferViews",
      "target": 34962
    },
    {
      "buffer": 0,
      "byteLength": 274752,
      "byteOffset": 376152,
      "byteStride": 16,
      "name": "floatBufferViews",
      "target": 34962
    }
  ],
  "buffers": [
    {
      "byteLength": 650904,
      "uri": "scene.bin"
    }
  ],
  "images": [
    {
      "uri": "textures/Material%20%231005_baseColor.png"
    },
    {
      "uri": "textures/Material%20%231005_normal.png"
    },
    {
      "uri": "textures/Material%20%231005_metallicRoughness.png"
    },
    {
      "uri": "textures/Material%20%231068_baseColor.png"
    },
    {
      "uri": "textures/Material%20%231068_normal.png"
    },
    {
      "uri": "textures/Material%20%231068_metallicRoughness.png"
    },
    {
      "uri": "textures/Material%20%231067_baseColor.png"
    },
    {
      "uri": "textures/Material%20%231067_normal.png"
    },
    {
      "uri": "textures/Material%20%231067_metallicRoughness.png"
    },
    {
      "uri": "textures/Material%20%231066_metallicRoughness.png"
    },
    {
      "uri": "textures/Material%20%231066_normal.png"
    },
    {
      "uri": "textures/Material%20%231066_baseColor.png"
    }
  ],
  "materials": [
    {
      "doubleSided": true,
      "name": "Material #1067",
      "normalTexture": {
        "index": 7,
        "scale": 1,
        "texCoord": 0
      },
      "occlusionTexture": {
        "index": 8,
        "strength": 1,
        "texCoord": 0
      },
      "pbrMetallicRoughness": {
        "baseColorFactor": [
          1,
          1,
          1,
          1
        ],
        "baseColorTexture": {
          "index": 6,
          "texCoord": 0
        },
        "metallicFactor": 1,
        "metallicRoughnessTexture": {
          "index": 8,
          "texCoord": 0
        },
        "roughnessFactor": 1
      }
    },
    {
      "doubleSided": true,
      "emissiveFactor": [
        0,
        0,
        0
      ],
      "name": "Material #1066",
      "normalTexture": {
        "index": 10,
        "scale": 1,
        "texCoord": 0
      },
      "occlusionTexture": {
        "index": 9,
        "strength": 1,
        "texCoord": 0
      },
      "pbrMetallicRoughness": {
        "baseColorFactor": [
          1,
          1,
          1,
          1
        ],
        "baseColorTexture": {
          "index": 11,
          "texCoord": 0
        },
        "metallicFactor": 1,
        "metallicRoughnessTexture": {
          "index": 9,
          "texCoord": 0
        },
        "roughnessFactor": 1
      }
    },
    {
      "doubleSided": true,
      "name": "Material #1005",
      "normalTexture": {
        "index": 1,
        "scale": 1,
        "texCoord": 0
      },
      "occlusionTexture": {
        "index": 2,
        "strength": 1,
        "texCoord": 0
      },
      "pbrMetallicRoughness": {
        "baseColorFactor": [
          1,
          1,
          1,
          1
        ],
        "baseColorTexture": {
          "index": 0,
          "texCoord": 0
        },
        "metallicFactor": 1,
        "metallicRoughnessTexture": {
          "index": 2,
          "texCoord": 0
        },
        "roughnessFactor": 1
      }
    },
    {
      "doubleSided": true,
      "name": "Material #1068",
      "normalTexture": {
        "index": 4,
        "scale": 1,
        "texCoord": 0
      },
      "occlusionTexture": {
        "index": 5,
        "strength": 1,
        "texCoord": 0
      },
      "pbrMetallicRoughness": {
        "baseColorFactor": [
          1,
          1,
          1,
          1
        ],
        "baseColorTexture": {
          "index": 3,
          "texCoord": 0
        },
        "metallicFactor": 1,
        "metallicRoughnessTexture": {
          "index": 5,
          "texCoord": 0
        },
        "roughnessFactor": 1
      }
    }
  ],
  "meshes": [
    {
      "name": "1_Material #1067_0",
      "primitives": [
        {
          "attributes": {
            "COLOR_0": 3,
            "NORMAL": 1,
            "POSITION": 0,
            "TANGENT": 2,
            "TEXCOORD_0": 4
          },
          "indices": 5,
          "material": 0,
          "mode": 4
        }
      ]
    },
    {
      "name": "3_Material #1066_0",
      "primitives": [
        {
          "attributes": {
            "COLOR_0": 9,
            "NORMAL": 7,
            "POSITION": 6,
            "TANGENT": 8,
            "TEXCOORD_0": 10
          },
          "indices": 11,
          "material": 1,
          "mode": 4
        }
      ]
    },
    {
      "name": "003_Material #1005_0",
      "primitives": [
        {
          "attributes": {
            "COLOR_0": 15,
            "NORMAL": 13,
            "POSITION": 12,
            "TANGENT": 14,
            "TEXCOORD_0": 16
          },
          "indices": 17,
          "material": 2,
          "mode": 4
        }
      ]
    },
    {
      "name": "Object001_Material #1068_0",
      "primitives": [
        {
          "attributes": {
            "COLOR_0": 21,
            "NORMAL": 19,
            "POSITION": 18,
            "TANGENT": 20,
            "TEXCOORD_0": 22
          },
          "indices": 23,
          "material": 3,
          "mode": 4
        }
      ]
    }
  ],
  "nodes": [
    {
      "children": [
        1
      ],
      "name": "RootNode (gltf orientation matrix)",
      "rotation": [
        -0.70710678118654746,
        -0,
        -0,
        0.70710678118654757
      ]
    },
    {
      "children": [
        2
      ],
      "name": "RootNode (model correction matrix)"
    },
    {
      "children": [
        3
      ],
      "matrix": [
        1,
        0,
        0,
        0,
        0,
        0,
        1,
        0,
        0,
        -1,
        0,
        0,
        0,
        0,
        0,
        1
      ],
      "name": "cars.FBX"
    },
    {
      "children": [
        4,
        7,
        10,
        13
      ],
      "name": "RootNode"
    },
    {
      "children": [
        5
      ],
      "matrix": [
        4.3711387731626417e-08,
        -5.5511151231257827e-17,
        -0.99999999999999933,
        0,
        -0.99999999999999933,
        0,
        -4.371138789815987e-08,
        0,
        5.5511151231257827e-17,
        1.0000000000000002,
        -2.2204460492503131e-16,
        0,
        284.01589965820312,
        83.714332580566406,
        3.6592696233128663e-06,
        1
      ],
      "name": "1"
    },
    {
      "children": [
        6
      ],
      "name": "Geode"
    },
    {
      "mesh": 0,
      "name": "1_Material #1067_0"
    },
    {
      "children": [
        8
      ],
      "matrix": [
        4.3711387731626417e-08,
        -5.5511151231257827e-17,
        -0.99999999999999933,
        0,
        -0.99999999999999933,
        0,
        -4.371138789815987e-08,
        0,
        5.5511151231257827e-17,
        1.0000000000000002,
        -2.2204460492503131e-16,
        0,
        17.071426391601562,
        83.668533325195312,
        3.6572675981005887e-06,
        1
      ],
      "name": "3"
    },
    {
      "children": [
        9
      ],
      "name": "Geode"
    },
    {
      "mesh": 1,
      "name": "3_Material #1066_0"
    },
    {
      "children": [
        11
      ],
      "matrix": [
        1,
        0,
        0,
        0,
        0,
        2.2204460492503131e-16,
        -1,
        0,
        0,
        1,
        2.2204460492503131e-16,
        0,
        -250.16622924804688,
        73.194572448730469,
        3.199436378054088e-06,
        1
      ],
      "name": "003"
    },
    {
      "children": [
        12
      ],
      "name": "Geode"
    },
    {
      "mesh": 2,
      "name": "003_Material #1005_0"
    },
    {
      "children": [
        14
      ],
      "matrix": [
        4.3711387731626417e-08,
        -5.5511151231257827e-17,
        -0.99999999999999933,
        0,
        -0.99999999999999933,
        0,
        -4.371138789815987e-08,
        0,
        5.5511151231257827e-17,
        1.0000000000000002,
        -2.2204460492503131e-16,
        0,
        546.248046875,
        83.668869018554688,
        3.6572823773894925e-06,
        1
      ],
      "name": "Object001"
    },
    {
      "children": [
        15
      ],
      "name": "Geode"
    },
    {
      "mesh": 3,
      "name": "Object001_Material #1068_0"
    }
  ],
  "samplers": [
    {
      "magFilter": 9729,
      "minFilter": 9987,
      "wrapS": 10497,
      "wrapT": 10497
    }
  ],
  "scene": 0,
  "scenes": [
    {
      "name": "OSG_Scene",
      "nodes": [
        0
      ]
    }
  ],
  "textures": [
    {
      "sampler": 0,
      "source": 0
    },
    {
      "sampler": 0,
      "source": 1
    },
    {
      "sampler": 0,
      "source": 2
    },
    {
      "sampler": 0,
      "source": 3
    },
    {
      "sampler": 0,
      "source": 4
    },
    {
      "sampler": 0,
      "source": 5
    },
    {
      "sampler": 0,
      "source": 6
    },
    {
      "sampler": 0,
      "source": 7
    },
    {
      "sampler": 0,
      "source": 8
    },
    {
      "sampler": 0,
      "source": 9
    },
    {
      "sampler": 0,
      "source": 10
    },
    {
      "sampler": 0,
      "source": 11
    }
  ]
}

